<svg xmlns="http://www.w3.org/2000/svg" viewBox="0 0 200 200" width="200" height="200" role="img" aria-label="NiftiMesh">
  <title>NiftiMesh</title>
  <!-- Low-poly faceted hexagon: each sector = one hue in 3 shades (top face light,
       outer bevel base, inner bevel dark) so it reads as a lit faceted gem / mesh. -->
  <g stroke="#1b2138" stroke-width="0.6" stroke-linejoin="round">
    <!-- sector 0 : amber -->
    <polygon points="100,100 100,50 143.30,75"   fill="#F5D08A"/>
    <polygon points="100,14 174.48,57 143.30,75"  fill="#EBB24E"/>
    <polygon points="100,14 143.30,75 100,50"      fill="#C9933A"/>
    <!-- sector 1 : coral -->
    <polygon points="100,100 143.30,75 143.30,125" fill="#F2A99E"/>
    <polygon points="174.48,57 174.48,143 143.30,125" fill="#E36A5E"/>
    <polygon points="174.48,57 143.30,125 143.30,75"  fill="#C0524A"/>
    <!-- sector 2 : violet -->
    <polygon points="100,100 143.30,125 100,150"   fill="#C9A6DC"/>
    <polygon points="174.48,143 100,186 100,150"    fill="#A86CC4"/>
    <polygon points="174.48,143 100,150 143.30,125" fill="#84509E"/>
    <!-- sector 3 : ocean -->
    <polygon points="100,100 100,150 56.70,125"    fill="#79B4DC"/>
    <polygon points="100,186 25.52,143 56.70,125"   fill="#2C7FB8"/>
    <polygon points="100,186 56.70,125 100,150"      fill="#1F5E8B"/>
    <!-- sector 4 : teal -->
    <polygon points="100,100 56.70,125 56.70,75"   fill="#8FCFC8"/>
    <polygon points="25.52,143 25.52,57 56.70,75"    fill="#3DA89F"/>
    <polygon points="25.52,143 56.70,75 56.70,125"   fill="#2C8079"/>
    <!-- sector 5 : sky -->
    <polygon points="100,100 56.70,75 100,50"       fill="#A9DCF0"/>
    <polygon points="25.52,57 100,14 100,50"         fill="#5BC2E7"/>
    <polygon points="25.52,57 100,50 56.70,75"        fill="#3F9CC1"/>
  </g>
  <!-- crisp outer rim -->
  <polygon points="100,14 174.48,57 174.48,143 100,186 25.52,143 25.52,57"
           fill="none" stroke="#1b2138" stroke-width="3" stroke-linejoin="round"/>
  <!-- mesh vertices -->
  <g fill="#ffffff" stroke="#1b2138" stroke-width="1.2">
    <circle cx="100" cy="14"  r="3.4"/>
    <circle cx="174.48" cy="57"  r="3.4"/>
    <circle cx="174.48" cy="143" r="3.4"/>
    <circle cx="100" cy="186" r="3.4"/>
    <circle cx="25.52" cy="143" r="3.4"/>
    <circle cx="25.52" cy="57"  r="3.4"/>
    <circle cx="100" cy="100" r="3.0"/>
  </g>
</svg>
